<svg width="156" height="32" viewBox="0 0 156 32" fill="none" xmlns="http://www.w3.org/2000/svg">
    <g clip-path="url(#clip0_9954_4579)">
        <path d="M40.24 15.9467C40.24 9.05334 45.3467 4.01334 52.3333 4.01334C59.32 4.01334 64.4267 9.05334 64.4267 15.9467C64.4267 22.84 59.32 27.88 52.3333 27.88C45.3467 27.88 40.24 22.84 40.24 15.9467ZM52.3333 24.9867C57.5733 24.9867 61.4 21.16 61.4 15.96C61.4 10.76 57.5733 6.93334 52.3333 6.93334C47.0933 6.93334 43.2667 10.76 43.2667 15.96C43.2667 21.16 47.0933 24.9867 52.3333 24.9867Z" fill="#B48C50"/>
        <path d="M73.4933 10.9467C74.5467 10.9467 75.44 11.1733 76.3867 11.6667V14.56C75.5333 14 74.6133 13.7067 73.68 13.7067C71.64 13.7067 70.3467 15.2267 70.3467 17.6667V27.4933H67.4667V17.3733C67.4667 13.5067 69.8667 10.9467 73.4933 10.9467Z" fill="#B48C50"/>
        <path d="M77.9067 19.3733C77.9067 14.4933 81.6 10.9333 86.64 10.9333C91.68 10.9333 95.3733 14.4933 95.3733 19.3733C95.3733 24.28 91.68 27.88 86.64 27.88C81.6 27.88 77.9067 24.2933 77.9067 19.3733ZM86.64 25.1067C89.9733 25.1067 92.4133 22.7067 92.4133 19.4C92.4133 16.1067 89.9733 13.6933 86.64 13.6933C83.3067 13.6933 80.8667 16.0933 80.8667 19.4C80.88 22.7067 83.3067 25.1067 86.64 25.1067Z" fill="#B48C50"/>
        <path d="M99.4454 27.4667V4.91801H108.919C110.271 4.91801 111.431 5.16014 112.4 5.64441C113.388 6.12868 114.145 6.81472 114.67 7.70254C115.214 8.57019 115.487 9.60934 115.487 10.82C115.487 11.9298 115.194 12.9387 114.609 13.8467C114.044 14.7345 113.207 15.4306 112.097 15.9351L112.067 14.8152C113.035 15.1784 113.832 15.6627 114.458 16.268C115.103 16.8532 115.588 17.5392 115.911 18.3261C116.233 19.0929 116.395 19.9101 116.395 20.7777C116.395 22.8561 115.729 24.4905 114.397 25.6809C113.065 26.8714 111.249 27.4667 108.949 27.4667H99.4454ZM102.412 24.7427H109.07C110.382 24.7427 111.431 24.3896 112.218 23.6833C113.005 22.9771 113.398 22.0187 113.398 20.808C113.398 19.5973 113.005 18.6389 112.218 17.9327C111.431 17.2063 110.382 16.8431 109.07 16.8431H102.412V24.7427ZM102.412 14.1796H108.858C109.948 14.1796 110.826 13.8669 111.492 13.2413C112.157 12.5957 112.49 11.7785 112.49 10.7897C112.49 9.76068 112.157 8.97374 111.492 8.42894C110.826 7.88414 109.948 7.61174 108.858 7.61174H102.412V14.1796Z" fill="#151515"/>
        <path d="M119.524 27.4667V25.4085L125.759 18.6591C126.99 17.3475 127.968 16.268 128.695 15.4205C129.441 14.5731 129.986 13.8164 130.329 13.1505C130.672 12.4847 130.844 11.7785 130.844 11.0319C130.844 9.80103 130.48 8.85268 129.754 8.18681C129.028 7.52094 128.069 7.18801 126.879 7.18801C125.668 7.18801 124.639 7.54112 123.791 8.24734C122.944 8.93339 122.359 9.91201 122.036 11.1832L119.342 10.4871C119.605 9.27641 120.089 8.22716 120.795 7.33934C121.501 6.45152 122.379 5.76548 123.428 5.28121C124.477 4.79694 125.628 4.55481 126.879 4.55481C128.251 4.55481 129.451 4.82721 130.48 5.37201C131.53 5.89663 132.347 6.63312 132.932 7.58148C133.537 8.52983 133.84 9.62952 133.84 10.8805C133.84 11.7078 133.668 12.5149 133.325 13.3019C132.982 14.0888 132.478 14.9262 131.812 15.814C131.146 16.6817 130.279 17.6905 129.209 18.8407L123.64 24.894H134.324V27.4667H119.524Z" fill="#151515"/>
        <path d="M138.52 27.4667V4.91801H147.994C149.346 4.91801 150.506 5.16014 151.474 5.64441C152.463 6.12868 153.22 6.81472 153.744 7.70254C154.289 8.57019 154.562 9.60934 154.562 10.82C154.562 11.9298 154.269 12.9387 153.684 13.8467C153.119 14.7345 152.281 15.4306 151.172 15.9351L151.141 14.8152C152.11 15.1784 152.907 15.6627 153.532 16.268C154.178 16.8532 154.662 17.5392 154.985 18.3261C155.308 19.0929 155.47 19.9101 155.47 20.7777C155.47 22.8561 154.804 24.4905 153.472 25.6809C152.14 26.8714 150.324 27.4667 148.024 27.4667H138.52ZM141.486 24.7427H148.145C149.457 24.7427 150.506 24.3896 151.293 23.6833C152.08 22.9771 152.473 22.0187 152.473 20.808C152.473 19.5973 152.08 18.6389 151.293 17.9327C150.506 17.2063 149.457 16.8431 148.145 16.8431H141.486V24.7427ZM141.486 14.1796H147.933C149.023 14.1796 149.9 13.8669 150.566 13.2413C151.232 12.5957 151.565 11.7785 151.565 10.7897C151.565 9.76068 151.232 8.97374 150.566 8.42894C149.9 7.88414 149.023 7.61174 147.933 7.61174H141.486V14.1796Z" fill="#151515"/>
        <path d="M31.1067 13.1867L19.28 1.36C17.7333 -0.186662 15.2 -0.186662 13.6533 1.36L1.82666 13.1867C0.279998 14.7333 0.279998 17.2667 1.82666 18.8133L7.73333 24.7333L13.64 30.64C15.1867 32.1867 17.72 32.1867 19.2667 30.64L31.0933 18.8133C32.6533 17.2667 32.6533 14.7333 31.1067 13.1867ZM24.3467 13.76L14.2267 23.88C12.68 25.4267 10.1467 25.4267 8.6 23.88C7.05333 22.3333 7.05333 19.8 8.6 18.2533L18.72 8.13334C20.2667 6.58667 22.8 6.58667 24.3467 8.13334C25.8933 9.66667 25.8933 12.2 24.3467 13.76Z" fill="#B48C50"/>
    </g>
    <defs>
        <clipPath id="clip0_9954_4579">
            <rect width="155.467" height="32" fill="white"/>
        </clipPath>
    </defs>
</svg>
