<svg width="156" height="44" viewBox="0 0 156 44" fill="none" xmlns="http://www.w3.org/2000/svg">
    <g clip-path="url(#clip0_45_20155)">
        <path d="M40.24 21.9467C40.24 15.0533 45.3467 10.0133 52.3333 10.0133C59.32 10.0133 64.4267 15.0533 64.4267 21.9467C64.4267 28.84 59.32 33.88 52.3333 33.88C45.3467 33.88 40.24 28.84 40.24 21.9467ZM52.3333 30.9867C57.5733 30.9867 61.4 27.16 61.4 21.96C61.4 16.76 57.5733 12.9333 52.3333 12.9333C47.0933 12.9333 43.2667 16.76 43.2667 21.96C43.2667 27.16 47.0933 30.9867 52.3333 30.9867Z" fill="#002434"/>
        <path d="M73.4933 16.9467C74.5467 16.9467 75.44 17.1733 76.3867 17.6667V20.56C75.5333 20 74.6133 19.7067 73.68 19.7067C71.64 19.7067 70.3467 21.2267 70.3467 23.6667V33.4933H67.4667V23.3733C67.4667 19.5067 69.8667 16.9467 73.4933 16.9467Z" fill="#002434"/>
        <path d="M77.9067 25.3733C77.9067 20.4933 81.6 16.9333 86.64 16.9333C91.68 16.9333 95.3733 20.4933 95.3733 25.3733C95.3733 30.28 91.68 33.88 86.64 33.88C81.6 33.88 77.9067 30.2933 77.9067 25.3733ZM86.64 31.1067C89.9733 31.1067 92.4133 28.7067 92.4133 25.4C92.4133 22.1067 89.9733 19.6933 86.64 19.6933C83.3067 19.6933 80.8667 22.0933 80.8667 25.4C80.88 28.7067 83.3067 31.1067 86.64 31.1067Z" fill="#002434"/>
        <path d="M99.4454 33.4667V10.918H108.919C110.271 10.918 111.431 11.1601 112.4 11.6444C113.388 12.1287 114.145 12.8147 114.67 13.7025C115.214 14.5702 115.487 15.6093 115.487 16.82C115.487 17.9298 115.194 18.9387 114.609 19.8467C114.044 20.7345 113.207 21.4306 112.097 21.9351L112.067 20.8152C113.035 21.1784 113.832 21.6627 114.458 22.268C115.103 22.8532 115.588 23.5392 115.911 24.3261C116.233 25.0929 116.395 25.9101 116.395 26.7777C116.395 28.8561 115.729 30.4905 114.397 31.6809C113.065 32.8714 111.249 33.4667 108.949 33.4667H99.4454ZM102.412 30.7427H109.07C110.382 30.7427 111.431 30.3896 112.218 29.6833C113.005 28.9771 113.398 28.0187 113.398 26.808C113.398 25.5973 113.005 24.6389 112.218 23.9327C111.431 23.2063 110.382 22.8431 109.07 22.8431H102.412V30.7427ZM102.412 20.1796H108.858C109.948 20.1796 110.826 19.8669 111.492 19.2413C112.157 18.5957 112.49 17.7785 112.49 16.7897C112.49 15.7607 112.157 14.9737 111.492 14.4289C110.826 13.8841 109.948 13.6117 108.858 13.6117H102.412V20.1796Z" fill="#002434"/>
        <path d="M119.524 33.4667V31.4085L125.759 24.6591C126.99 23.3475 127.968 22.268 128.695 21.4205C129.441 20.5731 129.986 19.8164 130.329 19.1505C130.672 18.4847 130.844 17.7785 130.844 17.0319C130.844 15.801 130.48 14.8527 129.754 14.1868C129.028 13.5209 128.069 13.188 126.879 13.188C125.668 13.188 124.639 13.5411 123.791 14.2473C122.944 14.9334 122.359 15.912 122.036 17.1832L119.342 16.4871C119.605 15.2764 120.089 14.2272 120.795 13.3393C121.501 12.4515 122.379 11.7655 123.428 11.2812C124.477 10.7969 125.628 10.5548 126.879 10.5548C128.251 10.5548 129.451 10.8272 130.48 11.372C131.53 11.8966 132.347 12.6331 132.932 13.5815C133.537 14.5298 133.84 15.6295 133.84 16.8805C133.84 17.7078 133.668 18.5149 133.325 19.3019C132.982 20.0888 132.478 20.9262 131.812 21.814C131.146 22.6817 130.279 23.6905 129.209 24.8407L123.64 30.894H134.324V33.4667H119.524Z" fill="#002434"/>
        <path d="M138.52 33.4667V10.918H147.994C149.346 10.918 150.506 11.1601 151.474 11.6444C152.463 12.1287 153.22 12.8147 153.744 13.7025C154.289 14.5702 154.562 15.6093 154.562 16.82C154.562 17.9298 154.269 18.9387 153.684 19.8467C153.119 20.7345 152.281 21.4306 151.172 21.9351L151.141 20.8152C152.11 21.1784 152.907 21.6627 153.532 22.268C154.178 22.8532 154.662 23.5392 154.985 24.3261C155.308 25.0929 155.47 25.9101 155.47 26.7777C155.47 28.8561 154.804 30.4905 153.472 31.6809C152.14 32.8714 150.324 33.4667 148.024 33.4667H138.52ZM141.486 30.7427H148.145C149.457 30.7427 150.506 30.3896 151.293 29.6833C152.08 28.9771 152.473 28.0187 152.473 26.808C152.473 25.5973 152.08 24.6389 151.293 23.9327C150.506 23.2063 149.457 22.8431 148.145 22.8431H141.486V30.7427ZM141.486 20.1796H147.933C149.023 20.1796 149.9 19.8669 150.566 19.2413C151.232 18.5957 151.565 17.7785 151.565 16.7897C151.565 15.7607 151.232 14.9737 150.566 14.4289C149.9 13.8841 149.023 13.6117 147.933 13.6117H141.486V20.1796Z" fill="#002434"/>
        <path d="M31.1067 19.1867L19.28 7.36C17.7333 5.81334 15.2 5.81334 13.6533 7.36L1.82666 19.1867C0.279998 20.7333 0.279998 23.2667 1.82666 24.8133L7.73333 30.7333L13.64 36.64C15.1867 38.1867 17.72 38.1867 19.2667 36.64L31.0933 24.8133C32.6533 23.2667 32.6533 20.7333 31.1067 19.1867ZM24.3467 19.76L14.2267 29.88C12.68 31.4267 10.1467 31.4267 8.6 29.88C7.05333 28.3333 7.05333 25.8 8.6 24.2533L18.72 14.1333C20.2667 12.5867 22.8 12.5867 24.3467 14.1333C25.8933 15.6667 25.8933 18.2 24.3467 19.76Z" fill="#B48C50"/>
    </g>
    <defs>
        <clipPath id="clip0_45_20155">
            <rect width="155.467" height="32" fill="white" transform="translate(0 6)"/>
        </clipPath>
    </defs>
</svg>
